<mxfile host="app.diagrams.net" modified="2024-04-25T08:05:46.621Z" agent="Mozilla/5.0 (Windows NT 10.0; Win64; x64) AppleWebKit/537.36 (KHTML, like Gecko) Chrome/124.0.0.0 Safari/537.36" etag="py6HbrpGEchGSWLRIjHi" version="24.3.0" type="device">
  <diagram name="Page-1" id="Sa_w2r6fBj5fdEAd1Axe">
    <mxGraphModel dx="875" dy="515" grid="1" gridSize="10" guides="1" tooltips="1" connect="1" arrows="1" fold="1" page="1" pageScale="1" pageWidth="850" pageHeight="1100" math="0" shadow="0">
      <root>
        <mxCell id="0" />
        <mxCell id="1" parent="0" />
        <mxCell id="ex1rKLNum5ruMrJhuiat-18" style="edgeStyle=orthogonalEdgeStyle;rounded=0;orthogonalLoop=1;jettySize=auto;html=1;exitX=0;exitY=0.5;exitDx=0;exitDy=0;entryX=1;entryY=0.5;entryDx=0;entryDy=0;" edge="1" parent="1" source="ex1rKLNum5ruMrJhuiat-1" target="ex1rKLNum5ruMrJhuiat-4">
          <mxGeometry relative="1" as="geometry" />
        </mxCell>
        <mxCell id="ex1rKLNum5ruMrJhuiat-1" value="Services" style="rounded=1;whiteSpace=wrap;html=1;fillColor=#fad7ac;strokeColor=#b46504;" vertex="1" parent="1">
          <mxGeometry x="330" y="290" width="120" height="60" as="geometry" />
        </mxCell>
        <mxCell id="ex1rKLNum5ruMrJhuiat-13" style="edgeStyle=orthogonalEdgeStyle;rounded=0;orthogonalLoop=1;jettySize=auto;html=1;exitX=0.25;exitY=0;exitDx=0;exitDy=0;entryX=0.25;entryY=1;entryDx=0;entryDy=0;" edge="1" parent="1" source="ex1rKLNum5ruMrJhuiat-2" target="ex1rKLNum5ruMrJhuiat-3">
          <mxGeometry relative="1" as="geometry" />
        </mxCell>
        <mxCell id="ex1rKLNum5ruMrJhuiat-20" style="edgeStyle=orthogonalEdgeStyle;rounded=0;orthogonalLoop=1;jettySize=auto;html=1;exitX=0;exitY=0.5;exitDx=0;exitDy=0;entryX=0.5;entryY=1;entryDx=0;entryDy=0;" edge="1" parent="1" source="ex1rKLNum5ruMrJhuiat-2" target="ex1rKLNum5ruMrJhuiat-1">
          <mxGeometry relative="1" as="geometry" />
        </mxCell>
        <mxCell id="ex1rKLNum5ruMrJhuiat-2" value="Web Controllers" style="rounded=1;whiteSpace=wrap;html=1;fillColor=#b1ddf0;strokeColor=#10739e;" vertex="1" parent="1">
          <mxGeometry x="520" y="360" width="120" height="60" as="geometry" />
        </mxCell>
        <mxCell id="ex1rKLNum5ruMrJhuiat-14" style="edgeStyle=orthogonalEdgeStyle;rounded=0;orthogonalLoop=1;jettySize=auto;html=1;exitX=0.75;exitY=1;exitDx=0;exitDy=0;entryX=0.75;entryY=0;entryDx=0;entryDy=0;" edge="1" parent="1" source="ex1rKLNum5ruMrJhuiat-3" target="ex1rKLNum5ruMrJhuiat-2">
          <mxGeometry relative="1" as="geometry" />
        </mxCell>
        <mxCell id="ex1rKLNum5ruMrJhuiat-21" style="edgeStyle=orthogonalEdgeStyle;rounded=0;orthogonalLoop=1;jettySize=auto;html=1;exitX=0;exitY=0.5;exitDx=0;exitDy=0;entryX=0.5;entryY=0;entryDx=0;entryDy=0;" edge="1" parent="1" source="ex1rKLNum5ruMrJhuiat-3" target="ex1rKLNum5ruMrJhuiat-1">
          <mxGeometry relative="1" as="geometry" />
        </mxCell>
        <mxCell id="ex1rKLNum5ruMrJhuiat-3" value="REST Controllers" style="rounded=1;whiteSpace=wrap;html=1;fillColor=#b0e3e6;strokeColor=#0e8088;" vertex="1" parent="1">
          <mxGeometry x="520" y="220" width="120" height="60" as="geometry" />
        </mxCell>
        <mxCell id="ex1rKLNum5ruMrJhuiat-19" style="edgeStyle=orthogonalEdgeStyle;rounded=0;orthogonalLoop=1;jettySize=auto;html=1;exitX=0;exitY=0.5;exitDx=0;exitDy=0;" edge="1" parent="1" source="ex1rKLNum5ruMrJhuiat-4" target="ex1rKLNum5ruMrJhuiat-5">
          <mxGeometry relative="1" as="geometry" />
        </mxCell>
        <mxCell id="ex1rKLNum5ruMrJhuiat-4" value="Database Repositories" style="rounded=1;whiteSpace=wrap;html=1;fillColor=#008a00;fontColor=#ffffff;strokeColor=#005700;" vertex="1" parent="1">
          <mxGeometry x="170" y="290" width="120" height="60" as="geometry" />
        </mxCell>
        <mxCell id="ex1rKLNum5ruMrJhuiat-5" value="MySQL Database" style="shape=cylinder3;whiteSpace=wrap;html=1;boundedLbl=1;backgroundOutline=1;size=15;fillColor=#1ba1e2;strokeColor=#006EAF;fontColor=#ffffff;" vertex="1" parent="1">
          <mxGeometry x="50" y="280" width="60" height="80" as="geometry" />
        </mxCell>
        <mxCell id="ex1rKLNum5ruMrJhuiat-23" style="edgeStyle=orthogonalEdgeStyle;rounded=0;orthogonalLoop=1;jettySize=auto;html=1;entryX=1;entryY=0.5;entryDx=0;entryDy=0;" edge="1" parent="1" source="ex1rKLNum5ruMrJhuiat-6" target="ex1rKLNum5ruMrJhuiat-2">
          <mxGeometry relative="1" as="geometry" />
        </mxCell>
        <mxCell id="ex1rKLNum5ruMrJhuiat-6" value="User" style="shape=umlActor;verticalLabelPosition=bottom;verticalAlign=top;html=1;outlineConnect=0;" vertex="1" parent="1">
          <mxGeometry x="760" y="360" width="30" height="60" as="geometry" />
        </mxCell>
        <mxCell id="ex1rKLNum5ruMrJhuiat-24" style="edgeStyle=orthogonalEdgeStyle;rounded=0;orthogonalLoop=1;jettySize=auto;html=1;entryX=1;entryY=0.5;entryDx=0;entryDy=0;" edge="1" parent="1" source="ex1rKLNum5ruMrJhuiat-7" target="ex1rKLNum5ruMrJhuiat-2">
          <mxGeometry relative="1" as="geometry" />
        </mxCell>
        <mxCell id="ex1rKLNum5ruMrJhuiat-7" value="Administrator" style="shape=umlActor;verticalLabelPosition=bottom;verticalAlign=top;html=1;outlineConnect=0;" vertex="1" parent="1">
          <mxGeometry x="760" y="250" width="30" height="60" as="geometry" />
        </mxCell>
      </root>
    </mxGraphModel>
  </diagram>
</mxfile>
